# xmcd
#
# Track frame offsets: 
#        150
#        20241
#        41768
#        59515
#        76961
#
# Disc length: 1315 seconds
#
# Revision: 6
# Processed by: cddbd v1.5.2PL0 Copyright (c) Steve Scherf et al.
# Submitted via: ExactAudioCopy v0.99pb4
#
DISCID=3f052105
DTITLE=Shania Twain - The Woman In Me - Bonus Disc The Radio Remixes
DYEAR=1995
DGENRE=Country
TTITLE0=I'm Outta Here (Mutt Lange Mis)
TTITLE1=I'm Outta Here (Dance Mix)
TTITLE2=You Win My Love (Mutt Mix)
TTITLE3=God Bless The Child (Extended Version)
TTITLE4=The Woman In Me (Needs The Man In You) (Internation Acoustic V
TTITLE4=ersion
EXTD=YEAR: 1995
EXTT0=
EXTT1=
EXTT2=
EXTT3=
EXTT4=
PLAYORDER=
